<?xml version="1.0" encoding="utf-8"?>
<!-- Generator: Adobe Illustrator 26.0.2, SVG Export Plug-In . SVG Version: 6.00 Build 0)  -->
<svg version="1.1" id="Layer_1" xmlns="http://www.w3.org/2000/svg" xmlns:xlink="http://www.w3.org/1999/xlink" x="0px" y="0px"
	 viewBox="0 0 500 500" style="enable-background:new 0 0 500 500;" xml:space="preserve">
<style type="text/css">
	.st0{fill:#FFFFFF;}
	.st1{display:none;fill:none;}
</style>
<g>
	<path class="st0" d="M333.62,224.08c-9.42-21.21-27.04-35.51-47.26-35.51h-72.17c-20.21,0-37.83,14.3-47.26,35.51
		c24.1,9.28,52.7,14.66,83.34,14.66S309.52,233.35,333.62,224.08z"/>
	<path class="st0" d="M276.76,299.33h29.53l19.77,54.01h21.98c0-0.12,0.01-0.23,0.01-0.35l-7.14-93.57c0-0.53-0.02-1.05-0.03-1.57
		c-17.87,6.38-38.05,10.95-59.86,13.22L276.76,299.33z"/>
	<path class="st0" d="M159.67,257.84c-0.01,0.52-0.03,1.05-0.03,1.57l-7.14,93.57c0,0.12,0,0.23,0,0.35h21.99l19.77-54.01h29.53
		l-4.26-28.28C197.72,268.79,177.55,264.21,159.67,257.84z"/>
	<path class="st0" d="M232.18,327.73l-9.11-60.4l-1.84-0.18c-79.76-7.91-137.64-46.67-137.64-92.18c0-9.35,2.45-18.53,7.3-27.37
		c2.28,52.73,72.9,95.19,159.39,95.19s157.12-42.47,159.4-95.19c4.85,8.84,7.3,18.01,7.3,27.37c0,45.51-57.89,84.27-137.65,92.18
		l-1.84,0.18l-9.11,60.4L232.18,327.73L232.18,327.73z"/>
</g>
<rect x="-819.41" y="18.6" class="st1" width="1494.19" height="205.73"/>
</svg>
