<svg xmlns="http://www.w3.org/2000/svg" version="1.1" xmlns:xlink="http://www.w3.org/1999/xlink" xmlns:svgjs="http://svgjs.dev/svgjs" width="2000" height="1500" viewBox="0 0 2000 1500"><rect width="2000" height="1500" fill="#ffffff"></rect><g transform="matrix(0.75,0,0,0.75,249.090909090909,648.867459259281)"><svg viewBox="0 0 396 54" data-background-color="#ffffff" preserveAspectRatio="xMidYMid meet" height="272" width="2000" xmlns="http://www.w3.org/2000/svg" xmlns:xlink="http://www.w3.org/1999/xlink"><defs></defs><g id="tight-bounds" transform="matrix(1,0,0,1,0.2400000000000091,-0.22962156863320615)"><svg viewBox="0 0 395.52 54.4592416461498" height="54.4592416461498" width="395.52"><g><svg viewBox="0 0 548.684282448849 75.54846765100672" height="54.4592416461498" width="395.52"><g><rect width="4.929839926762953" height="65.59924832214764" x="135.32910239966992" y="4.974609664429536" fill="#000000" opacity="1" stroke-width="0" stroke="transparent" fill-opacity="1" class="rect-o-0" data-fill-palette-color="primary" rx="1%" id="o-0" data-palette-color="#883d1a"></rect></g><g transform="matrix(1,0,0,1,153.16428244884898,10.441213691275173)"><svg viewBox="0 0 395.52 54.66604026845637" height="54.66604026845637" width="395.52"><g><svg viewBox="0 0 395.52 54.66604026845637" height="54.66604026845637" width="395.52"><g><svg viewBox="0 0 395.52 54.66604026845637" height="54.66604026845637" width="395.52"><g transform="matrix(1,0,0,1,0,0)"><svg width="395.52" viewBox="1.9000000953674316 -32.5 238.3800048828125 32.95000076293945" height="54.66604026845637" data-palette-color="#883d1a"><path d="M13.7-32.45Q17.5-32.45 21.3-30.85L21.3-30.85 20.45-26.15 19.65-25.85Q18.05-27 16.35-27.65 14.65-28.3 13.1-28.3L13.1-28.3Q10.65-28.3 9.2-26.95 7.75-25.6 7.75-23.8L7.75-23.8Q7.75-22.05 9.2-20.93 10.65-19.8 13.75-18.35L13.75-18.35Q16.45-17.05 18.13-16 19.8-14.95 21-13.23 22.2-11.5 22.2-9.1L22.2-9.1Q22.2-6.5 20.78-4.33 19.35-2.15 16.78-0.88 14.2 0.4 10.9 0.4L10.9 0.4Q8.7 0.4 6.35-0.15 4-0.7 1.9-1.75L1.9-1.75 2.55-6.85 3.2-7.15Q5.05-5.4 7.28-4.53 9.5-3.65 11.4-3.65L11.4-3.65Q14-3.65 15.55-5.03 17.1-6.4 17.1-8.3L17.1-8.3Q17.1-10.2 15.6-11.38 14.1-12.55 11-14L11-14Q8.35-15.25 6.7-16.28 5.05-17.3 3.88-19 2.7-20.7 2.7-23.1L2.7-23.1Q2.7-25.7 4.1-27.85 5.5-30 8-31.23 10.5-32.45 13.7-32.45L13.7-32.45ZM39.35-32.15Q44.2-32.15 46.82-29.68 49.45-27.2 49.45-22.55L49.45-22.55Q49.45-17.15 46.12-14 42.8-10.85 37-10.85L37-10.85 33.45-10.85 33.45-10.1 33.7 0 28.45 0 28.8-9.65 28.45-32.1 39.35-32.15ZM38.5-14.85Q41.25-15.4 42.67-17.23 44.1-19.05 44.1-22.1L44.1-22.1Q44.1-25.1 42.57-26.55 41.05-28 37.95-28.1L37.95-28.1 33.7-27.95 33.5-14.95 38.5-14.85ZM67.25-32.5Q73.9-32.5 77.5-28.4 81.09-24.3 81.09-16.7L81.09-16.7Q81.09-8.5 77.25-4.03 73.4 0.45 66.3 0.45L66.3 0.45Q59.7 0.45 56.12-3.78 52.55-8 52.55-15.75L52.55-15.75Q52.55-23.8 56.37-28.15 60.2-32.5 67.25-32.5L67.25-32.5ZM66.84-28.3Q62.3-28.3 60.07-25.38 57.85-22.45 57.85-16.35L57.85-16.35Q57.85-9.7 60.02-6.63 62.2-3.55 66.75-3.55L66.75-3.55Q71.34-3.55 73.55-6.5 75.75-9.45 75.75-15.7L75.75-15.7Q75.75-22.25 73.57-25.28 71.4-28.3 66.84-28.3L66.84-28.3ZM101.69-12.85Q105.09-7.4 109.74-1.2L109.74-1.2 109.69-0.6Q107.29 0.2 104.74 0.45L104.74 0.45 104.14 0.05Q99.99-6.75 97.44-11.45L97.44-11.45 91.99-11.45 91.99-10.1 92.24 0 86.99 0 87.34-9.65 86.99-32.1 97.89-32.15Q102.74-32.15 105.39-29.73 108.04-27.3 108.04-22.8L108.04-22.8Q108.04-19.6 106.37-17.03 104.69-14.45 101.69-12.85L101.69-12.85ZM92.24-27.95L92.09-15.65 97.59-15.5Q102.64-17.05 102.64-22.4L102.64-22.4Q102.64-25.2 101.12-26.6 99.59-28 96.49-28.1L96.49-28.1 92.24-27.95ZM133.14-32.1L133.44-31.65 133.14-27.75 127.34-28.05 124.64-28.05 124.39-10.1 124.64 0 119.44 0 119.74-9.65 119.49-28.05 116.79-28.05 110.89-27.75 110.54-28.2 110.94-32.1 133.14-32.1ZM149.84-4.15L157.59-4.4 157.89-3.95 157.54 0 138.59 0 138.94-9.65 138.59-32.1 157.64-32.1 157.94-31.65 157.54-27.7 149.94-27.9 143.84-27.85 143.69-18.5 149.49-18.4 154.79-18.55 155.14-18.15 154.74-14.2 149.09-14.35 143.64-14.25 143.59-10.1 143.74-4.2 149.84-4.15ZM177.94-12.85Q181.34-7.4 185.99-1.2L185.99-1.2 185.94-0.6Q183.54 0.2 180.99 0.45L180.99 0.45 180.39 0.05Q176.24-6.75 173.69-11.45L173.69-11.45 168.24-11.45 168.24-10.1 168.49 0 163.24 0 163.59-9.65 163.24-32.1 174.14-32.15Q178.99-32.15 181.64-29.73 184.29-27.3 184.29-22.8L184.29-22.8Q184.29-19.6 182.61-17.03 180.94-14.45 177.94-12.85L177.94-12.85ZM168.49-27.95L168.34-15.65 173.84-15.5Q178.89-17.05 178.89-22.4L178.89-22.4Q178.89-25.2 177.36-26.6 175.84-28 172.74-28.1L172.74-28.1 168.49-27.95ZM214.68-32.1L214.53-15.8 214.48-12Q214.58-6.1 211.28-2.85 207.98 0.4 201.93 0.4L201.93 0.4Q196.08 0.4 192.98-2.73 189.88-5.85 189.98-11.6L189.98-11.6 190.08-16.05 189.98-32.1 195.08-32.1 194.88-12.3Q194.83-8.1 196.68-6.05 198.53-4 202.28-4L202.28-4Q209.78-4 209.73-11.8L209.73-11.8 209.48-32.1 214.68-32.1ZM231.78-32.45Q235.58-32.45 239.38-30.85L239.38-30.85 238.53-26.15 237.73-25.85Q236.13-27 234.43-27.65 232.73-28.3 231.18-28.3L231.18-28.3Q228.73-28.3 227.28-26.95 225.83-25.6 225.83-23.8L225.83-23.8Q225.83-22.05 227.28-20.93 228.73-19.8 231.83-18.35L231.83-18.35Q234.53-17.05 236.21-16 237.88-14.95 239.08-13.23 240.28-11.5 240.28-9.1L240.28-9.1Q240.28-6.5 238.86-4.33 237.43-2.15 234.86-0.88 232.28 0.4 228.98 0.4L228.98 0.4Q226.78 0.4 224.43-0.15 222.08-0.7 219.98-1.75L219.98-1.75 220.63-6.85 221.28-7.15Q223.13-5.4 225.36-4.53 227.58-3.65 229.48-3.65L229.48-3.65Q232.08-3.65 233.63-5.03 235.18-6.4 235.18-8.3L235.18-8.3Q235.18-10.2 233.68-11.38 232.18-12.55 229.08-14L229.08-14Q226.43-15.25 224.78-16.28 223.13-17.3 221.96-19 220.78-20.7 220.78-23.1L220.78-23.1Q220.78-25.7 222.18-27.85 223.58-30 226.08-31.23 228.58-32.45 231.78-32.45L231.78-32.45Z" opacity="1" transform="matrix(1,0,0,1,0,0)" fill="#000000" class="undefined-text-0" data-fill-palette-color="primary" id="text-0"></path></svg></g></svg></g></svg></g></svg></g><g><svg viewBox="0 0 122.42376227725381 75.54846765100672" height="75.54846765100672" width="122.42376227725381"><g><svg xmlns="http://www.w3.org/2000/svg" xmlns:xlink="http://www.w3.org/1999/xlink" version="1.1" x="0" y="0" viewBox="3.0409998893737793 21.28099822998047 93.91899871826172 57.95800018310547" enable-background="new 0 0 100 100" xml:space="preserve" height="75.54846765100672" width="122.42376227725381" class="icon-icon-0" data-fill-palette-color="accent" id="icon-0"><path fill="#000000" d="M73.479 42.825c-2.655-5.976-7.618-10.004-13.313-10.004H39.834c-5.694 0-10.658 4.028-13.313 10.004 6.79 2.613 14.847 4.13 23.479 4.13S66.69 45.438 73.479 42.825z" data-fill-palette-color="accent"></path><path fill="#000000" d="M57.46 64.025h8.319l5.57 15.214h6.193c0-0.033 0.002-0.065 0.002-0.1l-2.011-26.36c0-0.148-0.006-0.296-0.009-0.443-5.035 1.796-10.719 3.086-16.863 3.723L57.46 64.025z" data-fill-palette-color="accent"></path><path fill="#000000" d="M24.475 52.336c-0.003 0.147-0.008 0.295-0.008 0.443l-2.011 26.36c0 0.034 0.001 0.066 0.001 0.1h6.194l5.569-15.214h8.319l-1.201-7.967C35.193 55.422 29.51 54.132 24.475 52.336z" data-fill-palette-color="accent"></path><path fill="#000000" d="M44.902 72.025L42.336 55.01l-0.519-0.052C19.349 52.731 3.041 41.811 3.041 28.991c0-2.634 0.69-5.219 2.056-7.71C5.738 36.135 25.635 48.098 50 48.098s44.263-11.963 44.904-26.817c1.365 2.491 2.056 5.075 2.056 7.71 0 12.82-16.308 23.741-38.777 25.967l-0.519 0.052-2.566 17.016H44.902z" data-fill-palette-color="accent"></path></svg></g></svg></g></svg></g></svg><rect width="395.52" height="54.4592416461498" fill="none" stroke="none" visibility="hidden"></rect></g></svg></g></svg>